HIERARCHY
ROOT Hips
{
	OFFSET 0.00000 0.00000 0.00000
	CHANNELS 6 Xposition Yposition Zposition Zrotation Yrotation Xrotation 
	JOINT LHipJoint
	{
		OFFSET 0 0 0
		CHANNELS 3 Zrotation Yrotation Xrotation
		JOINT LeftHip
		{
			OFFSET 1.29432 -1.88279 0.59910
			CHANNELS 3 Zrotation Yrotation Xrotation
			JOINT LeftKnee
			{
				OFFSET 2.63039 -7.22694 0.00000
				CHANNELS 3 Zrotation Yrotation Xrotation
				JOINT LeftAnkle
				{
					OFFSET 2.70674 -7.43672 0.00000
					CHANNELS 3 Zrotation Yrotation Xrotation
					JOINT LeftToe
					{
						OFFSET 0.15066 -0.41394 2.09027
						CHANNELS 3 Zrotation Yrotation Xrotation
						End Site
						{
							OFFSET 0.00000 -0.00000 1.07518
						}
					}
				}
			}
		}
	}
	JOINT RHipJoint
	{
		OFFSET 0 0 0
		CHANNELS 3 Zrotation Yrotation Xrotation
		JOINT RightHip
		{
			OFFSET -1.37068 -1.88279 0.59910
			CHANNELS 3 Zrotation Yrotation Xrotation
			JOINT RightKnee
			{
				OFFSET -2.57023 -7.06166 0.00000
				CHANNELS 3 Zrotation Yrotation Xrotation
				JOINT RightAnkle
				{
					OFFSET -2.76461 -7.59570 0.00000
					CHANNELS 3 Zrotation Yrotation Xrotation
					JOINT RightToe
					{
						OFFSET -0.24175 -0.64785 2.19719
						CHANNELS 3 Zrotation Yrotation Xrotation
						End Site
						{
							OFFSET -0.00000 -0.00000 1.14803
						}
					}
				}
			}
		}
	}
	JOINT lowerback
	{
		OFFSET 0 0 0
		CHANNELS 3 Zrotation Yrotation Xrotation
		JOINT Chest
		{
			OFFSET -0.03138 2.03983 -0.23106
			CHANNELS 3 Zrotation Yrotation Xrotation
			JOINT Chest2
			{
				OFFSET -0.00325 2.06238 -0.06878
				CHANNELS 3 Zrotation Yrotation Xrotation
				JOINT lowerneck
				{
					OFFSET 0 0 0
					CHANNELS 3 Zrotation Yrotation Xrotation
					JOINT Neck
					{
						OFFSET -0.00002 1.75318 0.18090
						CHANNELS 3 Zrotation Yrotation Xrotation
						JOINT Head
						{
							OFFSET 0.08806 1.75856 -0.25387
							CHANNELS 3 Zrotation Yrotation Xrotation
							End Site
							{
								OFFSET 0.02554 1.78597 -0.10684
							}
						}
					}
				}
				JOINT LeftCollar
				{
					OFFSET 0 0 0
					CHANNELS 3 Zrotation Yrotation Xrotation
					JOINT LeftShoulder
					{
						OFFSET 3.09657 1.33597 -0.04414
CHANNELS 3 Zrotation Xrotation Yrotation
						JOINT LeftElbow
						{
OFFSET 0 -5.342980 -0.000000
CHANNELS 3 Zrotation Xrotation Yrotation
							JOINT LeftWrist
							{
OFFSET 0 -3.672620 -0.000000
CHANNELS 3 Zrotation Xrotation Yrotation
								JOINT lhand
								{
									OFFSET 0 0 0
CHANNELS 3 Zrotation Xrotation Yrotation
									JOINT LFingers
									{
OFFSET 0 -0.599300 -0.000000
CHANNELS 3 Zrotation Xrotation Yrotation
										End Site
										{
OFFSET 0 -0.483170 -0.000000
										}
									}
								}
								JOINT LThumb
								{
OFFSET 0 0.000000 0.000000
CHANNELS 3 Zrotation Xrotation Yrotation
									End Site
									{
OFFSET 0 -0.490550 0.490550
									}
								}
							}
						}
					}
				}
				JOINT RightCollar
				{
					OFFSET 0 0 0
					CHANNELS 3 Zrotation Yrotation Xrotation
					JOINT RightShoulder
					{
						OFFSET -3.16460 1.32273 -0.23382
CHANNELS 3 Zrotation Xrotation Yrotation
						JOINT RightElbow
						{
OFFSET 0 -5.549670 0.033480
CHANNELS 3 Zrotation Xrotation Yrotation
							JOINT RightWrist
							{
OFFSET 0 -3.694010 0.000000
CHANNELS 3 Zrotation Xrotation Yrotation
								JOINT rhand
								{
									OFFSET 0 0 0
CHANNELS 3 Zrotation Xrotation Yrotation
									JOINT RFingers
									{
OFFSET 0 -0.638110 0.000000
CHANNELS 3 Zrotation Xrotation Yrotation
										End Site
										{
OFFSET 0 -0.514460 0.000000
										}
									}
								}
								JOINT RThumb
								{
OFFSET 0 0.000000 0.000000
CHANNELS 3 Zrotation Xrotation Yrotation
									End Site
									{
OFFSET 0 -0.522320 0.522320
									}
								}
							}
						}
					}
				}
			}
		}
	}
}
MOTION
Frames: 4
Frame Time: 0.008333333333333333
16.183013 18.649498 -2.039295 170.264035 3.284857 -173.099204 0.000000 0.000000 0.000000 -31.637526 4.479652 7.059682 0.077430 1.743317 4.798221 0.067798 0.484174 -5.070278 0.949650 -6.206034 -17.383374 0.000000 0.000000 0.000000 0.779596 20.921693 -30.066168 -1.525868 -7.795422 22.096436 0.054956 -12.258604 -16.696520 -0.078945 1.735571 -4.777245 -13.962782 -3.201037 -0.559182 -2.853423 -3.824905 -0.247145 4.717343 -1.784048 0.800823 -4.464040 -2.270459 -8.187205 15.931543 -2.582009 1.298762 5.476213 -0.606344 2.043915 0.000000 0.000000 0.000000 22.488054 -45.878957 4.766179 45.851332 -51.176734 22.900680 -0.588263 -63.574490 -25.990745 0.000000 0.000000 0.000000 -7.125000 0.000000 0.000000 -31.239505 53.089019 6.791255 0.000000 0.000000 0.000000 0.855000 12.544801 4.582336 -11.447562 -18.970366 -1.919424 -20.387813 17.769673 -22.054642 0.000000 0.000000 0.000000 7.125000 0.000000 0.000000 5.309848 6.688337 4.673381
16.191154 18.647524 -2.101261 170.294813 3.264609 -173.048052 0.000000 0.000000 0.000000 -31.533892 4.718428 7.728211 0.047577 1.362883 3.748398 0.050379 0.626968 -4.476833 0.955317 -6.224079 -17.435909 0.000000 0.000000 0.000000 0.491231 21.621506 -29.972311 -1.452066 -7.616011 21.554018 0.060166 -12.470702 -16.935737 -0.098147 1.969696 -5.423213 -13.950110 -3.227622 -0.672819 -2.810505 -3.842846 -0.228165 4.747716 -1.801407 0.890222 -4.412671 -2.240390 -8.196944 15.833063 -2.543819 1.274379 5.438131 -0.592647 2.031459 0.000000 0.000000 0.000000 23.006925 -45.951620 5.271292 46.214932 -51.349697 23.183799 -1.322953 -64.130460 -27.115824 0.000000 0.000000 0.000000 -7.125000 0.000000 0.000000 -32.693093 53.921416 7.833237 0.000000 0.000000 0.000000 0.833420 12.513108 4.431400 -11.303380 -18.751796 -1.872311 -20.475496 17.602653 -22.652568 0.000000 0.000000 0.000000 7.125000 0.000000 0.000000 5.302238 6.053392 4.732945
16.200357 18.644707 -2.165568 170.270022 3.215514 -173.018753 0.000000 0.000000 0.000000 -31.465754 5.014647 8.654918 0.028495 0.816272 2.245030 0.031898 0.889080 -3.604854 0.949494 -6.205598 -17.382082 0.000000 0.000000 0.000000 0.136152 22.336209 -29.824352 -1.390876 -7.457985 21.081029 0.054043 -12.671436 -17.313129 -0.059345 1.278093 -3.518489 -13.981550 -3.239004 -0.752865 -2.787441 -3.843710 -0.216709 4.783926 -1.806779 0.951336 -4.428485 -2.229084 -8.187140 15.805604 -2.523798 1.241099 5.432985 -0.586412 2.017598 0.000000 0.000000 0.000000 23.434576 -46.009767 5.583287 46.482753 -51.473428 23.393398 -2.016622 -64.526933 -28.418007 0.000000 0.000000 0.000000 -7.125000 0.000000 0.000000 -34.370489 54.865327 9.210696 0.000000 0.000000 0.000000 0.851299 12.613813 4.321266 -11.263001 -18.690193 -1.859352 -19.994094 17.956455 -22.144947 0.000000 0.000000 0.000000 7.125000 0.000000 0.000000 5.564763 6.652553 4.900774
16.209560 18.641890 -2.229875 170.245230 3.166420 -172.989454 0.000000 0.000000 0.000000 -31.397615 5.310865 9.581625 0.009414 0.269661 0.741662 0.013417 1.151191 -2.732876 0.943672 -6.187117 -17.328255 0.000000 0.000000 0.000000 -0.218928 23.050913 -29.676393 -1.329687 -7.299959 20.608041 0.047921 -12.872171 -17.690520 -0.020542 0.586491 -1.613764 -14.012990 -3.250385 -0.832911 -2.764378 -3.844574 -0.205252 4.820136 -1.812150 1.012450 -4.444298 -2.217778 -8.177337 15.778146 -2.503777 1.207818 5.427839 -0.580176 2.003738 0.000000 0.000000 0.000000 23.862226 -46.067914 5.895282 46.750575 -51.597159 23.602998 -2.710290 -64.923407 -29.720190 0.000000 0.000000 0.000000 -7.125000 0.000000 0.000000 -36.047885 55.809237 10.588154 0.000000 0.000000 0.000000 0.869179 12.714519 4.211133 -11.222621 -18.628591 -1.846393 -19.512692 18.310258 -21.637326 0.000000 0.000000 0.000000 7.125000 0.000000 0.000000 5.827288 7.251714 5.068604
